<mxfile host="app.diagrams.net" modified="2022-03-28T15:51:29.173Z" agent="5.0 (Windows NT 10.0; Win64; x64) AppleWebKit/537.36 (KHTML, like Gecko) Chrome/99.0.4844.88 Safari/537.36" etag="Bp6eBJIPvL6wIDN0aj23" version="17.2.4" type="github">
  <diagram id="6a731a19-8d31-9384-78a2-239565b7b9f0" name="Page-1">
    <mxGraphModel dx="620" dy="324" grid="1" gridSize="10" guides="1" tooltips="1" connect="1" arrows="1" fold="1" page="1" pageScale="1" pageWidth="1169" pageHeight="827" background="none" math="0" shadow="0">
      <root>
        <mxCell id="0" />
        <mxCell id="1" parent="0" />
        <mxCell id="1353" value="Estructurales" style="ellipse;whiteSpace=wrap;html=1;shadow=0;fontFamily=Helvetica;fontSize=20;fontColor=#FFFFFF;align=center;strokeWidth=3;fillColor=#1699D3;strokeColor=none;" parent="1" vertex="1">
          <mxGeometry x="1090" y="200" width="120" height="120" as="geometry" />
        </mxCell>
        <mxCell id="1354" value="Creacionales" style="ellipse;whiteSpace=wrap;html=1;shadow=0;fontFamily=Helvetica;fontSize=20;fontColor=#FFFFFF;align=center;strokeWidth=3;fillColor=#736ca8;strokeColor=none;" parent="1" vertex="1">
          <mxGeometry x="1711" y="1171.5" width="120" height="120" as="geometry" />
        </mxCell>
        <mxCell id="1356" value="Comportameniento" style="ellipse;whiteSpace=wrap;html=1;shadow=0;fontFamily=Helvetica;fontSize=20;fontColor=#FFFFFF;align=center;strokeWidth=3;fillColor=#E85642;strokeColor=none;" parent="1" vertex="1">
          <mxGeometry x="558.5" y="1171.5" width="181.5" height="138.5" as="geometry" />
        </mxCell>
        <mxCell id="1362" style="endArrow=none;strokeWidth=6;strokeColor=#1699D3;html=1;" parent="1" source="1515" target="1353" edge="1">
          <mxGeometry relative="1" as="geometry" />
        </mxCell>
        <mxCell id="1364" style="endArrow=none;strokeWidth=6;strokeColor=#736ca8;html=1;" parent="1" source="1515" target="1354" edge="1">
          <mxGeometry relative="1" as="geometry" />
        </mxCell>
        <mxCell id="1366" value="" style="edgeStyle=none;endArrow=none;strokeWidth=6;strokeColor=#E85642;html=1;" parent="1" source="1515" target="1356" edge="1">
          <mxGeometry x="181" y="226.5" width="100" height="100" as="geometry">
            <mxPoint x="181" y="326.5" as="sourcePoint" />
            <mxPoint x="281" y="226.5" as="targetPoint" />
          </mxGeometry>
        </mxCell>
        <mxCell id="1437" value="Proxy Orientado a Objetos" style="rounded=1;fillColor=#64BBE2;strokeColor=none;strokeWidth=3;shadow=0;html=1;fontColor=#FFFFFF;imageAlign=center;whiteSpace=wrap;" parent="1" vertex="1">
          <mxGeometry x="880" y="250" width="120" height="60" as="geometry" />
        </mxCell>
        <mxCell id="1438" value="Flyweight" style="rounded=1;fillColor=#64BBE2;strokeColor=none;strokeWidth=3;shadow=0;html=1;fontColor=#FFFFFF;" parent="1" vertex="1">
          <mxGeometry x="883.5" y="120" width="120" height="40" as="geometry" />
        </mxCell>
        <mxCell id="1439" value="Facade" style="rounded=1;fillColor=#64BBE2;strokeColor=none;strokeWidth=3;shadow=0;html=1;fontColor=#FFFFFF;" parent="1" vertex="1">
          <mxGeometry x="1070" y="100" width="120" height="40" as="geometry" />
        </mxCell>
        <mxCell id="1440" value="Decorator" style="rounded=1;fillColor=#64BBE2;strokeColor=none;strokeWidth=3;shadow=0;html=1;fontColor=#FFFFFF;" parent="1" vertex="1">
          <mxGeometry x="1240" y="130" width="120" height="40" as="geometry" />
        </mxCell>
        <mxCell id="1441" value="Bridge" style="rounded=1;fillColor=#64BBE2;strokeColor=none;strokeWidth=3;shadow=0;html=1;fontColor=#FFFFFF;" parent="1" vertex="1">
          <mxGeometry x="1210" y="350" width="120" height="40" as="geometry" />
        </mxCell>
        <mxCell id="1442" value="Composite" style="rounded=1;fillColor=#64BBE2;strokeColor=none;strokeWidth=3;shadow=0;html=1;fontColor=#FFFFFF;" parent="1" vertex="1">
          <mxGeometry x="1270" y="240" width="120" height="40" as="geometry" />
        </mxCell>
        <mxCell id="1443" value="Adapter" style="rounded=1;fillColor=#64BBE2;strokeColor=none;strokeWidth=3;shadow=0;html=1;fontColor=#FFFFFF;" parent="1" vertex="1">
          <mxGeometry x="970" y="380" width="120" height="40" as="geometry" />
        </mxCell>
        <mxCell id="1448" value="" style="edgeStyle=none;endArrow=none;strokeWidth=3;strokeColor=#64BBE2;html=1;" parent="1" source="1353" target="1437" edge="1">
          <mxGeometry x="-870" y="-410" width="100" height="100" as="geometry">
            <mxPoint x="-870" y="-310" as="sourcePoint" />
            <mxPoint x="-770" y="-410" as="targetPoint" />
          </mxGeometry>
        </mxCell>
        <mxCell id="1449" value="" style="edgeStyle=none;endArrow=none;strokeWidth=3;strokeColor=#64BBE2;html=1;" parent="1" source="1353" target="1438" edge="1">
          <mxGeometry x="-870" y="-410" width="100" height="100" as="geometry">
            <mxPoint x="-870" y="-310" as="sourcePoint" />
            <mxPoint x="-770" y="-410" as="targetPoint" />
          </mxGeometry>
        </mxCell>
        <mxCell id="1450" value="" style="edgeStyle=none;endArrow=none;strokeWidth=3;strokeColor=#64BBE2;html=1;" parent="1" source="1353" target="1439" edge="1">
          <mxGeometry x="-870" y="-410" width="100" height="100" as="geometry">
            <mxPoint x="-870" y="-310" as="sourcePoint" />
            <mxPoint x="-770" y="-410" as="targetPoint" />
          </mxGeometry>
        </mxCell>
        <mxCell id="1451" value="" style="edgeStyle=none;endArrow=none;strokeWidth=3;strokeColor=#64BBE2;html=1;" parent="1" source="1353" target="1440" edge="1">
          <mxGeometry x="-870" y="-410" width="100" height="100" as="geometry">
            <mxPoint x="-870" y="-310" as="sourcePoint" />
            <mxPoint x="-770" y="-410" as="targetPoint" />
          </mxGeometry>
        </mxCell>
        <mxCell id="1452" value="" style="edgeStyle=none;endArrow=none;strokeWidth=3;strokeColor=#64BBE2;html=1;" parent="1" source="1353" target="1442" edge="1">
          <mxGeometry x="-870" y="-410" width="100" height="100" as="geometry">
            <mxPoint x="-870" y="-310" as="sourcePoint" />
            <mxPoint x="-770" y="-410" as="targetPoint" />
          </mxGeometry>
        </mxCell>
        <mxCell id="1453" value="" style="edgeStyle=none;endArrow=none;strokeWidth=3;strokeColor=#64BBE2;html=1;" parent="1" source="1353" target="1441" edge="1">
          <mxGeometry x="-870" y="-410" width="100" height="100" as="geometry">
            <mxPoint x="-870" y="-310" as="sourcePoint" />
            <mxPoint x="-770" y="-410" as="targetPoint" />
          </mxGeometry>
        </mxCell>
        <mxCell id="1454" value="" style="edgeStyle=none;endArrow=none;strokeWidth=3;strokeColor=#64BBE2;html=1;" parent="1" source="1353" target="1443" edge="1">
          <mxGeometry x="-870" y="-410" width="100" height="100" as="geometry">
            <mxPoint x="-870" y="-310" as="sourcePoint" />
            <mxPoint x="-770" y="-410" as="targetPoint" />
          </mxGeometry>
        </mxCell>
        <mxCell id="1457" value="Singleton" style="rounded=1;fillColor=#a29dc5;strokeColor=none;strokeWidth=3;shadow=0;html=1;fontColor=#FFFFFF;" parent="1" vertex="1">
          <mxGeometry x="1646" y="1087" width="120" height="40" as="geometry" />
        </mxCell>
        <mxCell id="1458" value="Abstract Factory" style="rounded=1;fillColor=#a29dc5;strokeColor=none;strokeWidth=3;shadow=0;html=1;fontColor=#FFFFFF;" parent="1" vertex="1">
          <mxGeometry x="1720" y="1321.5" width="120" height="40" as="geometry" />
        </mxCell>
        <mxCell id="1459" value="Builder" style="rounded=1;fillColor=#a29dc5;strokeColor=none;strokeWidth=3;shadow=0;html=1;fontColor=#FFFFFF;" parent="1" vertex="1">
          <mxGeometry x="1801" y="1114" width="120" height="40" as="geometry" />
        </mxCell>
        <mxCell id="1461" value="Factory Method" style="rounded=1;fillColor=#a29dc5;strokeColor=none;strokeWidth=3;shadow=0;html=1;fontColor=#FFFFFF;" parent="1" vertex="1">
          <mxGeometry x="1880" y="1226" width="120" height="40" as="geometry" />
        </mxCell>
        <mxCell id="1462" value="Prototype" style="rounded=1;fillColor=#a29dc5;strokeColor=none;strokeWidth=3;shadow=0;html=1;fontColor=#FFFFFF;" parent="1" vertex="1">
          <mxGeometry x="1560" y="1266" width="120" height="40" as="geometry" />
        </mxCell>
        <mxCell id="1464" value="" style="edgeStyle=none;endArrow=none;strokeWidth=3;strokeColor=#A29DC5;html=1;" parent="1" source="1354" target="1461" edge="1">
          <mxGeometry x="251" y="-103.5" width="100" height="100" as="geometry">
            <mxPoint x="251" y="-3.5" as="sourcePoint" />
            <mxPoint x="351" y="-103.5" as="targetPoint" />
          </mxGeometry>
        </mxCell>
        <mxCell id="1465" value="" style="edgeStyle=none;endArrow=none;strokeWidth=3;strokeColor=#A29DC5;html=1;" parent="1" source="1354" target="1458" edge="1">
          <mxGeometry x="251" y="-103.5" width="100" height="100" as="geometry">
            <mxPoint x="251" y="-3.5" as="sourcePoint" />
            <mxPoint x="351" y="-103.5" as="targetPoint" />
          </mxGeometry>
        </mxCell>
        <mxCell id="1466" value="" style="edgeStyle=none;endArrow=none;strokeWidth=3;strokeColor=#A29DC5;html=1;" parent="1" source="1354" target="1462" edge="1">
          <mxGeometry x="251" y="-103.5" width="100" height="100" as="geometry">
            <mxPoint x="251" y="-3.5" as="sourcePoint" />
            <mxPoint x="351" y="-103.5" as="targetPoint" />
          </mxGeometry>
        </mxCell>
        <mxCell id="1467" value="" style="edgeStyle=none;endArrow=none;strokeWidth=3;strokeColor=#A29DC5;html=1;" parent="1" source="1354" target="1457" edge="1">
          <mxGeometry x="251" y="-103.5" width="100" height="100" as="geometry">
            <mxPoint x="251" y="-3.5" as="sourcePoint" />
            <mxPoint x="351" y="-103.5" as="targetPoint" />
          </mxGeometry>
        </mxCell>
        <mxCell id="1490" value="Chain of Responsability" style="rounded=1;fillColor=#f08e81;strokeColor=none;strokeWidth=3;shadow=0;html=1;fontColor=#FFFFFF;whiteSpace=wrap;" parent="1" vertex="1">
          <mxGeometry x="623.5" y="1006.5" width="120" height="40" as="geometry" />
        </mxCell>
        <mxCell id="1491" value="Command" style="rounded=1;fillColor=#f08e81;strokeColor=none;strokeWidth=3;shadow=0;html=1;fontColor=#FFFFFF;" parent="1" vertex="1">
          <mxGeometry x="488.5" y="1011.5" width="120" height="40" as="geometry" />
        </mxCell>
        <mxCell id="1492" value="Interpreter" style="rounded=1;fillColor=#f08e81;strokeColor=none;strokeWidth=3;shadow=0;html=1;fontColor=#FFFFFF;" parent="1" vertex="1">
          <mxGeometry x="423.5" y="1066.5" width="120" height="40" as="geometry" />
        </mxCell>
        <mxCell id="1493" value="Mediator" style="rounded=1;fillColor=#f08e81;strokeColor=none;strokeWidth=3;shadow=0;html=1;fontColor=#FFFFFF;" parent="1" vertex="1">
          <mxGeometry x="368.5" y="1126.5" width="120" height="40" as="geometry" />
        </mxCell>
        <mxCell id="1494" value="Iterator" style="rounded=1;fillColor=#f08e81;strokeColor=none;strokeWidth=3;shadow=0;html=1;fontColor=#FFFFFF;" parent="1" vertex="1">
          <mxGeometry x="348.5" y="1181.5" width="120" height="40" as="geometry" />
        </mxCell>
        <mxCell id="1495" value="Memento" style="rounded=1;fillColor=#f08e81;strokeColor=none;strokeWidth=3;shadow=0;html=1;fontColor=#FFFFFF;" parent="1" vertex="1">
          <mxGeometry x="363.5" y="1246.5" width="120" height="40" as="geometry" />
        </mxCell>
        <mxCell id="1496" value="Observer" style="rounded=1;fillColor=#f08e81;strokeColor=none;strokeWidth=3;shadow=0;html=1;fontColor=#FFFFFF;" parent="1" vertex="1">
          <mxGeometry x="398.5" y="1309" width="120" height="40" as="geometry" />
        </mxCell>
        <mxCell id="1497" value="State" style="rounded=1;fillColor=#f08e81;strokeColor=none;strokeWidth=3;shadow=0;html=1;fontColor=#FFFFFF;" parent="1" vertex="1">
          <mxGeometry x="468.5" y="1359" width="120" height="40" as="geometry" />
        </mxCell>
        <mxCell id="1498" value="Gerbera" style="rounded=1;fillColor=#f08e81;strokeColor=none;strokeWidth=3;shadow=0;html=1;fontColor=#FFFFFF;" parent="1" vertex="1">
          <mxGeometry x="578.5" y="1414" width="120" height="40" as="geometry" />
        </mxCell>
        <mxCell id="1499" value="Strategy" style="rounded=1;fillColor=#f08e81;strokeColor=none;strokeWidth=3;shadow=0;html=1;fontColor=#FFFFFF;" parent="1" vertex="1">
          <mxGeometry x="703.5" y="1349" width="120" height="40" as="geometry" />
        </mxCell>
        <mxCell id="1500" value="Template Method" style="rounded=1;fillColor=#f08e81;strokeColor=none;strokeWidth=3;shadow=0;html=1;fontColor=#FFFFFF;" parent="1" vertex="1">
          <mxGeometry x="763.5" y="1281.5" width="120" height="40" as="geometry" />
        </mxCell>
        <mxCell id="1501" value="Visitor" style="rounded=1;fillColor=#f08e81;strokeColor=none;strokeWidth=3;shadow=0;html=1;fontColor=#FFFFFF;" parent="1" vertex="1">
          <mxGeometry x="783.5" y="1186" width="120" height="40" as="geometry" />
        </mxCell>
        <mxCell id="1502" value="" style="edgeStyle=none;endArrow=none;strokeWidth=3;strokeColor=#F08E81;html=1;" parent="1" source="1356" target="1501" edge="1">
          <mxGeometry x="188.5" y="51.5" width="100" height="100" as="geometry">
            <mxPoint x="188.5" y="151.5" as="sourcePoint" />
            <mxPoint x="288.5" y="51.5" as="targetPoint" />
          </mxGeometry>
        </mxCell>
        <mxCell id="1503" value="" style="edgeStyle=none;endArrow=none;strokeWidth=3;strokeColor=#F08E81;html=1;" parent="1" source="1356" target="1490" edge="1">
          <mxGeometry x="188.5" y="51.5" width="100" height="100" as="geometry">
            <mxPoint x="188.5" y="151.5" as="sourcePoint" />
            <mxPoint x="288.5" y="51.5" as="targetPoint" />
          </mxGeometry>
        </mxCell>
        <mxCell id="1504" value="" style="edgeStyle=none;endArrow=none;strokeWidth=3;strokeColor=#F08E81;html=1;" parent="1" source="1356" target="1491" edge="1">
          <mxGeometry x="188.5" y="51.5" width="100" height="100" as="geometry">
            <mxPoint x="188.5" y="151.5" as="sourcePoint" />
            <mxPoint x="288.5" y="51.5" as="targetPoint" />
          </mxGeometry>
        </mxCell>
        <mxCell id="1505" value="" style="edgeStyle=none;endArrow=none;strokeWidth=3;strokeColor=#F08E81;html=1;" parent="1" source="1356" target="1492" edge="1">
          <mxGeometry x="188.5" y="51.5" width="100" height="100" as="geometry">
            <mxPoint x="188.5" y="151.5" as="sourcePoint" />
            <mxPoint x="288.5" y="51.5" as="targetPoint" />
          </mxGeometry>
        </mxCell>
        <mxCell id="1506" value="" style="edgeStyle=none;endArrow=none;strokeWidth=3;strokeColor=#F08E81;html=1;" parent="1" source="1356" target="1493" edge="1">
          <mxGeometry x="188.5" y="51.5" width="100" height="100" as="geometry">
            <mxPoint x="188.5" y="151.5" as="sourcePoint" />
            <mxPoint x="288.5" y="51.5" as="targetPoint" />
          </mxGeometry>
        </mxCell>
        <mxCell id="1507" value="" style="edgeStyle=none;endArrow=none;strokeWidth=3;strokeColor=#F08E81;html=1;" parent="1" source="1356" target="1494" edge="1">
          <mxGeometry x="188.5" y="51.5" width="100" height="100" as="geometry">
            <mxPoint x="188.5" y="151.5" as="sourcePoint" />
            <mxPoint x="288.5" y="51.5" as="targetPoint" />
          </mxGeometry>
        </mxCell>
        <mxCell id="1508" value="" style="edgeStyle=none;endArrow=none;strokeWidth=3;strokeColor=#F08E81;html=1;" parent="1" source="1356" target="1495" edge="1">
          <mxGeometry x="188.5" y="51.5" width="100" height="100" as="geometry">
            <mxPoint x="188.5" y="151.5" as="sourcePoint" />
            <mxPoint x="288.5" y="51.5" as="targetPoint" />
          </mxGeometry>
        </mxCell>
        <mxCell id="1509" value="" style="edgeStyle=none;endArrow=none;strokeWidth=3;strokeColor=#F08E81;html=1;" parent="1" source="1356" target="1496" edge="1">
          <mxGeometry x="188.5" y="51.5" width="100" height="100" as="geometry">
            <mxPoint x="188.5" y="151.5" as="sourcePoint" />
            <mxPoint x="288.5" y="51.5" as="targetPoint" />
          </mxGeometry>
        </mxCell>
        <mxCell id="1510" value="" style="edgeStyle=none;endArrow=none;strokeWidth=3;strokeColor=#F08E81;html=1;" parent="1" source="1356" target="1497" edge="1">
          <mxGeometry x="188.5" y="51.5" width="100" height="100" as="geometry">
            <mxPoint x="188.5" y="151.5" as="sourcePoint" />
            <mxPoint x="288.5" y="51.5" as="targetPoint" />
          </mxGeometry>
        </mxCell>
        <mxCell id="1511" value="" style="edgeStyle=none;endArrow=none;strokeWidth=3;strokeColor=#F08E81;html=1;" parent="1" source="1356" target="1498" edge="1">
          <mxGeometry x="188.5" y="51.5" width="100" height="100" as="geometry">
            <mxPoint x="188.5" y="151.5" as="sourcePoint" />
            <mxPoint x="288.5" y="51.5" as="targetPoint" />
          </mxGeometry>
        </mxCell>
        <mxCell id="1512" value="" style="edgeStyle=none;endArrow=none;strokeWidth=3;strokeColor=#F08E81;html=1;" parent="1" source="1356" target="1499" edge="1">
          <mxGeometry x="188.5" y="51.5" width="100" height="100" as="geometry">
            <mxPoint x="188.5" y="151.5" as="sourcePoint" />
            <mxPoint x="288.5" y="51.5" as="targetPoint" />
          </mxGeometry>
        </mxCell>
        <mxCell id="1513" value="" style="edgeStyle=none;endArrow=none;strokeWidth=3;strokeColor=#F08E81;html=1;" parent="1" source="1356" target="1500" edge="1">
          <mxGeometry x="188.5" y="51.5" width="100" height="100" as="geometry">
            <mxPoint x="188.5" y="151.5" as="sourcePoint" />
            <mxPoint x="288.5" y="51.5" as="targetPoint" />
          </mxGeometry>
        </mxCell>
        <mxCell id="1515" value="Patrones" style="ellipse;whiteSpace=wrap;html=1;shadow=0;fontFamily=Helvetica;fontSize=30;fontColor=#2F5B7C;align=center;strokeColor=#2F5B7C;strokeWidth=6;fillColor=#FFFFFF;fontStyle=1;gradientColor=none;" parent="1" vertex="1">
          <mxGeometry x="1030" y="690" width="270" height="270" as="geometry" />
        </mxCell>
        <mxCell id="1541" value="" style="edgeStyle=none;endArrow=none;strokeWidth=3;strokeColor=#A29DC5;html=1;" parent="1" source="1354" target="1459" edge="1">
          <mxGeometry x="-1174" y="-408.5" width="100" height="100" as="geometry">
            <mxPoint x="-1174" y="-308.5" as="sourcePoint" />
            <mxPoint x="-1074" y="-408.5" as="targetPoint" />
          </mxGeometry>
        </mxCell>
      </root>
    </mxGraphModel>
  </diagram>
</mxfile>
